<?xml version="1.0" encoding="utf-8"?>
<!-- Generator: Adobe Illustrator 21.0.0, SVG Export Plug-In . SVG Version: 6.00 Build 0)  -->
<svg version="1.1" id="Camada_1" xmlns="http://www.w3.org/2000/svg" xmlns:xlink="http://www.w3.org/1999/xlink" x="0px" y="0px"
	 viewBox="0 0 500 500" style="enable-background:new 0 0 500 500;" xml:space="preserve">
<style type="text/css">
	.st0{fill:#FFFFFF;}
	.st1{fill:#001938;}
	.st2{fill:#FA5C00;}
</style>
<g>
	<g>
		<g>
			<g>
				<path class="st0" d="M470.6,159.9c-6.3-12-16.5-18.9-30.5-20.8c-2.6-0.3-5.2-0.3-7.9,0c-0.4,2.3-0.9,4.5-1,6.8
					c10.6-1.1,19.6,1.6,27,8.7c7.4,7.1,10.1,15.8,8.8,25.9c2.1-0.2,4-0.3,5.9-0.4c1.2-0.1,1.2-0.2,1.3-1.3
					C474.8,172.2,473.7,165.8,470.6,159.9"/>
				<path class="st0" d="M446.9,163.7c-5-4.1-13.8-7.5-17.5-6.7c-0.3,2.1-0.7,4.2-1,6.3c11.7,1.6,18.9,7.7,21.9,18.6
					c2.3-0.2,4.5-0.3,6.7-0.5C457.2,176.6,452.4,168.2,446.9,163.7"/>
				<path class="st1" d="M11.3,164.9c2.3,0,4.6,0,6.9,0c9.7,0,19.4,0,29.1,0h2c10.1,39.8,20.1,79.4,30.2,119c0.1,0,0.2,0,0.3,0.1
					c0.1-0.3,0.3-0.5,0.4-0.8c1.7-7.9,3.4-15.7,5.1-23.6c3.2-15.1,6.5-30.2,9.7-45.3c3.3-15.1,6.5-30.3,9.8-45.4
					c0.3-1.3,0.6-2.6,0.9-3.9h39.2c8.4,39.7,16.7,79.4,25.1,119.1c0.1,0,0.2,0,0.2,0c0,0,0.1,0,0.1,0c0.1-0.1,0.2-0.2,0.2-0.3
					c0-0.1,0.1-0.2,0.1-0.3c10-39.4,20-78.8,30.1-118.2c0,0,0-0.1,0.2-0.4c12.6,0.1,25.3,0.3,38.2,0.4c-0.2,0.8-0.4,1.4-0.6,2
					c-3.7,11.4-7.5,22.7-11,34.1c-4.1,13.2-7.9,26.4-11.9,39.6c-9.1,30.7-18.3,61.3-27.4,92c-0.1,0.5-0.3,1-0.5,1.5h-35
					c-9.1-43.1-18.1-86.3-27.3-129.4c-1.3,4.2-2.1,8.6-3,12.9c-0.9,4.3-1.8,8.6-2.8,12.9c-0.9,4.3-1.8,8.7-2.8,13
					c-0.9,4.3-1.9,8.7-2.8,13c-0.9,4.3-1.9,8.7-2.8,13c-0.9,4.3-1.8,8.6-2.7,12.9c-0.9,4.3-1.9,8.7-2.8,13c-0.9,4.3-1.9,8.7-2.8,13
					c-0.9,4.3-1.8,8.6-2.7,12.9c-0.9,4.3-1.9,8.6-2.8,13h-1.7h-31c-0.2,0-0.4,0-0.6,0c-0.8,0.1-1.2-0.2-1.5-1c-0.9-3-1.8-6-2.7-8.9
					c-15.8-52.6-31.6-105.1-47.4-157.7c-0.2-0.6-0.6-1.2-0.9-1.8V164.9z"/>
				<path class="st1" d="M342.7,373.4c-1-0.2-1.9-0.5-2.9-0.6c-0.9-0.1-1.8-0.2-2.8-0.2v-23.4c0.6,0,1.2-0.1,1.8-0.1
					c3.2,0,6.4,0,9.6-0.1c2.9-0.1,5.7-0.8,8.3-2.1c5.2-2.6,7-6.3,5.8-11.9c-0.3-1.4-0.7-2.8-1.2-4.1c-13.5-36.9-27-73.7-40.5-110.6
					c-0.2-0.5-0.4-1-0.6-1.7h34.3c2.7,8.8,5.3,17.7,8,26.6c2.7,8.9,5.3,17.8,8,26.7c2.7,8.9,5.3,17.7,8,26.6c0.1,0,0.2,0,0.4,0
					c0.7-2.2,1.4-4.5,2-6.7c6.3-21.1,12.6-42.2,19-63.4c0.4-1.2,0.8-2.3,1.4-3.4c2.2-4.1,6-5.9,10.6-6.3c0.6-0.1,1.2-0.1,1.8-0.1
					c6.9,0,13.7,0,20.6,0c0.3,0,0.6,0,1.2,0.1c-0.2,0.6-0.4,1.1-0.5,1.6c-11.3,32-22.5,64-33.8,96c-3.7,10.4-7.3,20.8-11,31.2
					c-1.6,4.4-3.5,8.7-6.1,12.6c-1.4,2-2.9,3.9-4.5,5.7c-3.1,3.6-7.5,5.2-12,6.1c-2.8,0.6-5.8,0.9-8.7,1.3c-0.4,0.1-0.8,0.2-1.2,0.3
					H342.7z"/>
				<path class="st1" d="M490.8,174.2c-0.3,1.5-0.6,3.1-0.8,4.7c-2.6,0.2-4.9,0.3-7.4,0.5c4-14.5,1.3-27.5-9.6-38.3
					c-10.8-10.7-24.2-13.8-39.5-10.5c0.4-2.4,0.8-4.7,1.1-7.1c1.7-0.2,3.3-0.5,4.9-0.7c2.8-0.3,7-0.3,9.2,0c10.6,1.1,19.9,5,27.7,12
					c8.2,7.4,13.2,16.4,14.4,27.2C490.9,162.2,491.8,166.9,490.8,174.2"/>
				<path class="st1" d="M320.6,256.4c0-2.8,0-5.6-0.2-8.4c-0.4-7.1-3.2-13.1-8.5-18.1c-3.1-2.9-6.7-5-10.6-6.6
					c-8.2-3.3-16.9-4.4-25.7-4.7c-4.2-0.1-8.5,0-12.8,0.2c-6.2,0.3-12.2,1.6-17.9,4c-11.2,4.9-18.7,12.9-21.3,24.6
					c-0.2,0.8-0.3,1.6-0.4,2.4c0.3,0.1,0.5,0.2,0.7,0.2c9.4,0,18.8,0,28.3,0c0.7,0,1-0.3,1.3-0.9c1.8-3.2,4.6-5.1,8.2-6.1
					c6.2-1.7,12.4-1.6,18.6-0.2c2,0.4,4,1,5.9,1.7c5.5,2.2,6.7,9.9,1.7,13.5c-1.4,1-3.1,1.9-4.7,2.5c-3.6,1.5-7.5,2.3-11.4,2.7
					c-5.8,0.6-11.5,1.4-17.2,2.5c-7.9,1.6-15.4,4.2-22.2,8.5c-5,3.2-8.4,7.4-10.3,12.8c-2.8,8.5-2.8,17-0.7,25.6
					c1.6,6.7,5.3,12.3,11.3,16.3c7.8,5.1,16.4,7.6,25.8,7.8c6.3,0.1,12.5-0.3,18.8-0.9c5.7-0.5,11.2-1.7,16.5-3.8
					c14.3-5.6,22.9-15.7,25.7-30.3c1-5.1,1.1-10.2,1.1-15.4C320.6,276.6,320.6,266.5,320.6,256.4 M291.3,291.4
					c-0.4,6-2.5,11.4-7.1,15.7c-3.8,3.6-8.4,5.5-13.5,6.3c-4,0.6-7.9,0.8-11.9-0.2c-5.5-1.3-8.8-4.8-9.6-10.2
					c-0.6-3.6,0-7.1,1.7-10.4c0.8-1.6,1.9-2.8,3.4-3.7c3.2-2,6.6-3.2,10.3-4c6.1-1.3,12.2-2.4,18.1-4.3c2.5-0.8,4.9-1.7,7.3-2.6
					c0.4-0.1,0.8-0.3,1.3-0.5c0,0.1,0,0.2,0,0.2c0,0.2,0,0.3,0.1,0.4c0,0,0,0.1,0,0.1c0,0.1,0,0.1,0,0.1
					C291.4,282.8,291.6,287.1,291.3,291.4"/>
				<path class="st1" d="M467,180.5c1.3-10.1-1.5-18.8-8.8-25.9c-7.4-7.1-16.4-9.8-27-8.7c0.2-2.3,0.6-4.5,1-6.8
					c2.7-0.3,5.3-0.3,7.9,0c13.9,1.8,24.1,8.7,30.5,20.8c3.1,5.9,4.2,12.3,3.7,19c-0.1,1.1-0.1,1.2-1.3,1.3
					C471,180.2,469.1,180.4,467,180.5"/>
				<path class="st1" d="M428.3,163.2c0.3-2.1,0.7-4.2,1-6.3c3.7-0.8,12.5,2.6,17.5,6.7c5.5,4.5,10.4,12.9,10,17.6
					c-2.2,0.2-4.4,0.3-6.7,0.5C447.2,170.9,440,164.8,428.3,163.2"/>
				<rect x="259.2" y="179.6" class="st2" width="3.8" height="16.9"/>
				<path class="st2" d="M275.9,196.5v-16.9h4.5l3.5,6.2c1,1.8,2,3.9,2.8,5.8h0.1c-0.3-2.2-0.3-4.5-0.3-7.1v-5h3.5v16.9h-4l-3.6-6.5
					c-1-1.8-2.1-4-2.9-6l-0.1,0c0.1,2.2,0.2,4.6,0.2,7.4v5.1H275.9z"/>
				<polygon class="st2" points="306,182.8 301.4,182.8 301.4,179.6 314.4,179.6 314.4,182.8 309.8,182.8 309.8,196.5 306,196.5 
									"/>
				<polygon class="st2" points="336,189.3 329.8,189.3 329.8,193.4 336.8,193.4 336.8,196.5 326,196.5 326,179.6 336.4,179.6 
					336.4,182.7 329.8,182.7 329.8,186.2 336,186.2 				"/>
				<path class="st2" d="M348.9,179.8c1.2-0.2,3.1-0.4,5.1-0.4c2.5,0,4.3,0.4,5.5,1.3c1,0.8,1.6,2,1.6,3.5c0,2.2-1.5,3.6-3,4.2v0.1
					c1.2,0.5,1.8,1.6,2.3,3.2c0.5,1.9,1.1,4.1,1.4,4.8h-3.9c-0.3-0.5-0.7-1.9-1.2-3.9c-0.5-2.1-1.2-2.7-2.7-2.7h-1.2v6.7h-3.8V179.8
					z M352.7,187.1h1.5c1.9,0,3-1,3-2.4c0-1.6-1.1-2.3-2.8-2.4c-0.9,0-1.5,0.1-1.7,0.1V187.1z"/>
				<path class="st2" d="M373.3,196.5v-16.9h4.5l3.5,6.2c1,1.8,2,3.9,2.8,5.8h0.1c-0.3-2.2-0.3-4.5-0.3-7.1v-5h3.5v16.9h-4l-3.6-6.5
					c-1-1.8-2.1-4-2.9-6l-0.1,0c0.1,2.2,0.2,4.6,0.2,7.4v5.1H373.3z"/>
				<polygon class="st2" points="410.2,189.3 403.9,189.3 403.9,193.4 410.9,193.4 410.9,196.5 400.1,196.5 400.1,179.6 
					410.5,179.6 410.5,182.7 403.9,182.7 403.9,186.2 410.2,186.2 				"/>
				<polygon class="st2" points="426.4,182.8 421.8,182.8 421.8,179.6 434.9,179.6 434.9,182.8 430.2,182.8 430.2,196.5 
					426.4,196.5 				"/>
			</g>
		</g>
	</g>
	<path class="st1" d="M470.5,197.2c6.9,0,12.4,5.5,12.4,12.4c0,6.9-5.6,12.6-12.5,12.6c-6.9,0-12.4-5.6-12.4-12.5
		C458,202.8,463.6,197.2,470.5,197.2z M470.6,200.8c-4.9-0.1-8.9,3.8-9,8.7c-0.1,4.9,3.7,8.9,8.5,9c5,0.1,9-3.7,9.1-8.6
		C479.4,204.9,475.6,200.9,470.6,200.8z"/>
	<path class="st1" d="M473.8,211.1c0.8,1.3,1.4,2.3,2.2,3.6c-1.4,0-2.5,0-3.6,0c-0.4,0-0.6-0.3-0.7-0.6c-0.3-0.7-0.7-1.5-1-2.2
		c-0.4,0-0.8,0-1.3,0c0,0.9,0,1.8,0,2.8c-1.2,0-2.4,0-3.6,0c0-3.7,0-7.3,0-10.9c2.2,0,4.2-0.1,6.3,0c1.5,0.1,2.9,0.9,3.3,2.5
		c0.5,1.6,0.3,3.2-1,4.5C474.2,210.9,474.1,211,473.8,211.1z M469.4,206.4c0,1,0,1.8,0,2.7c0.5,0,0.9,0,1.3,0c0.9,0,1.4-0.4,1.4-1.3
		c0-0.9-0.4-1.3-1.3-1.3C470.4,206.4,469.9,206.4,469.4,206.4z"/>
</g>
</svg>
